PathFileType	4	(X/Y/Z)	E:\Qualisys_Data\Carbon_Farble_Plate\Data\Amateur_Runner\S2\T1\S2T1V22_c3d.trc
DataRate	CameraRate	NumFrames	NumMarkers	Units	OrigDataRate	OrigDataStartFrame	OrigNumFrames
200.000000	200.000000	5	39	mm	200.000000	245	327
Frame#	Time	LSHO			RSHO			LICST			RICST			LASIS			LHEEL			RASIS			LTROC			RTROC			SACR			LTH1			LSK4			LTH2			LTH3			RHM5			LSK2			LTH4			RTH1			LTOE			RTH2			RTH3			RTH4			LLEP			RLEP			LSK1			LSK3			RSK1			LHM5			RSK2			LFT1			RSK3			RSK4			LLME			RLME			RTOE			RHEEL			RFT1			RFT2			LFT2			
		X1	Y1	Z1	X2	Y2	Z2	X3	Y3	Z3	X4	Y4	Z4	X5	Y5	Z5	X6	Y6	Z6	X7	Y7	Z7	X8	Y8	Z8	X9	Y9	Z9	X10	Y10	Z10	X11	Y11	Z11	X12	Y12	Z12	X13	Y13	Z13	X14	Y14	Z14	X15	Y15	Z15	X16	Y16	Z16	X17	Y17	Z17	X18	Y18	Z18	X19	Y19	Z19	X20	Y20	Z20	X21	Y21	Z21	X22	Y22	Z22	X23	Y23	Z23	X24	Y24	Z24	X25	Y25	Z25	X26	Y26	Z26	X27	Y27	Z27	X28	Y28	Z28	X29	Y29	Z29	X30	Y30	Z30	X31	Y31	Z31	X32	Y32	Z32	X33	Y33	Z33	X34	Y34	Z34	X35	Y35	Z35	X36	Y36	Z36	X37	Y37	Z37	X38	Y38	Z38	X39	Y39	Z39	

246	1.225	1324.585693359375	1459.287109375	-458.6348266601562	1383.211791992188	1448.66845703125	-160.5725708007812	1333.637939453125	993.45263671875	-430.6737670898438	1346.80029296875	991.1353149414062	-130.8534088134766	1392.531494140625	946.695068359375	-407.7361145019531	1500.553100585938	67.46967315673828	-279.7424926757812	1401.737915039062	940.16650390625	-149.8380737304688	1273.699829101562	869.1591186523438	-434.8305053710938	1240.480102539062	909.9406127929688	-122.7844848632812	1243.92236328125	1033.628051757812	-275.9425964355469	1464.47607421875	651.8551635742188	-436.6658020019531	1464.83154296875	267.6255798339844	-381.2929992675781	1385.02294921875	621.6157836914062	-431.0401916503906	1499.53271484375	562.2769165039062	-398.2568054199219	678.1420288085938	406.343505859375	-141.1663360595703	1449.103271484375	363.466064453125	-400.7877502441406	1419.634399414062	533.9902954101562	-394.7669372558594	1279.884765625	627.6312866210938	-99.79251098632812	1719.684814453125	166.8694915771484	-325.6865234375	1208.176025390625	656.824462890625	-105.290168762207	1243.0400390625	533.6002807617188	-105.4025497436523	1169.668823242188	565.891845703125	-118.7628402709961	1473.037719726562	506.1685791015625	-393.4897766113281	1176.063598632812	528.268798828125	-106.0936965942383	1526.2822265625	377.1951904296875	-393.88720703125	1542.587646484375	279.8643798828125	-378.6347045898438	1071.323486328125	474.74609375	-105.4803009033203	1681.204345703125	114.6577529907227	-380.2716979980469	1067.053100585938	555.00341796875	-111.3335876464844	1525.296508789062	55.89660263061523	-252.7595825195312	969.9862060546876	468.0092468261719	-119.9762344360352	969.47509765625	547.08056640625	-129.3436279296875	1546.917724609375	98.09579467773438	-344.190185546875	789.2295532226562	497.1280517578125	-168.0725708007812	681.9638671875	333.4400329589844	-188.1011199951172	812.8063354492188	537.9818115234375	-234.7110595703125	789.3865356445312	527.5164184570312	-270.1507263183594	788.251953125	554.65283203125	-215.638916015625	1515.519897460938	39.36141204833984	-304.0756530761719
247	1.23	1345.105590820312	1454.043579101562	-459.8768920898438	1402.068725585938	1443.620849609375	-160.8450469970703	1352.201171875	988.6683959960938	-430.6285705566406	1365.595092773438	985.9513549804688	-130.5778350830078	1411.38134765625	942.1388549804688	-408.1366882324219	1508.02587890625	70.60712432861328	-278.1490783691406	1421.104125976562	935.5138549804688	-149.9607086181641	1292.626342773438	863.69970703125	-433.9219665527344	1260.59521484375	903.880859375	-121.6357192993164	1262.966674804688	1028.506713867188	-275.9341125488281	1483.997436523438	648.9423828125	-433.8806762695312	1478.400268554688	262.9448547363281	-379.9995727539062	1406.218994140625	619.9877319335938	-428.5158996582031	1519.701171875	559.2459106445312	-396.0836791992188	703.0097045898438	412.9849853515625	-141.8798675537109	1465.005981445312	359.2472839355469	-399.3168334960938	1439.414428710938	531.6166381835938	-394.0069580078125	1303.637329101562	621.76416015625	-98.30751037597656	1730.8076171875	155.7749786376953	-322.6744079589844	1231.037719726562	649.9877319335938	-104.6032485961914	1267.951904296875	527.1432495117188	-103.4489822387695	1194.51953125	558.3931274414062	-117.6979217529297	1493.002319335938	502.5885620117188	-392.0502014160156	1201.696899414062	521.4955444335938	-104.1083374023438	1542.763549804688	371.04345703125	-392.3555603027344	1556.81103515625	273.8549499511719	-377.4085693359375	1096.552490234375	470.3392639160156	-104.3117294311523	1690.498657226562	104.4870452880859	-377.2077026367188	1094.56689453125	550.2137451171875	-109.9435577392578	1532.902709960938	54.7663459777832	-251.2798767089844	995.5330200195312	467.0130310058594	-118.848518371582	996.7169799804688	545.5352172851562	-128.1981811523438	1556.7373046875	92.58766174316406	-342.3158874511719	815.5249633789062	501.3096923828125	-168.5780944824219	705.5203857421875	340.050537109375	-189.1113433837891	841.081787109375	541.8873291015625	-234.3925323486328	817.4757690429688	531.3235473632812	-270.3583679199219	816.6090698242188	558.7825927734375	-215.6496124267578	1520.360107421875	41.77992248535156	-302.2356567382812
248	1.235	1365.744506835938	1448.2158203125	-461.2076110839844	1420.53125	1438.562866210938	-160.8941802978516	1370.738525390625	983.4656982421876	-430.6908874511719	1384.959838867188	980.9888916015624	-130.7147216796875	1430.239379882812	937.2493896484376	-408.5408325195312	1515.642333984375	70.86985778808594	-275.4193725585938	1440.542114257812	930.3724975585938	-150.1029510498047	1311.417724609375	858.3917846679688	-432.9065856933594	1280.641723632812	897.0709228515625	-121.1736602783203	1281.955078125	1022.854125976562	-276.2339172363281	1504.785278320312	646.4474487304688	-431.1497192382812	1491.215576171875	258.3240966796875	-378.5578308105469	1426.934936523438	617.5358276367188	-425.7297058105469	1539.93994140625	555.920654296875	-394.3730773925781	728.4988403320312	418.7974548339844	-142.3071746826172	1481.113891601562	354.85205078125	-397.4501342773438	1459.364013671875	528.5418090820312	-393.020263671875	1326.696166992188	616.1394653320312	-96.92621612548828	1742.04443359375	142.7011108398438	-318.6539306640625	1254.189086914062	643.0650634765625	-104.0346145629883	1292.9677734375	520.8281860351562	-101.4685821533203	1219.152465820312	551.0919799804688	-116.5195083618164	1512.756225585938	498.9724731445312	-390.8036193847656	1227.58984375	514.8901977539062	-102.050422668457	1558.859985351562	364.8277282714844	-391.6444091796875	1570.741455078125	267.205810546875	-375.7519226074219	1122.274169921875	465.9513549804688	-102.8794479370117	1698.719848632812	94.62312316894533	-374.6529846191406	1122.848266601562	546.0285034179688	-107.8860168457031	1538.500610351562	54.46193695068359	-248.4724731445312	1020.780090332031	465.3724670410156	-118.6911544799805	1024.679931640625	543.8948974609375	-127.2797317504883	1565.074340820312	88.14312744140625	-340.2574157714844	842.9691772460938	505.8514709472656	-168.3168334960938	730.5220947265625	345.775634765625	-189.6322631835938	869.1505737304688	545.09423828125	-234.9912719726562	845.8186645507812	535.015380859375	-270.6161499023438	845.198974609375	562.4937744140625	-216.0801391601562	1525.872314453125	41.23004531860352	-299.65625
249	1.24	1386.43408203125	1442.095458984375	-462.7496948242188	1439.300170898438	1433.197509765625	-161.3965911865234	1389.351440429688	978.1221313476562	-430.9939270019531	1404.004760742188	975.4222412109376	-130.5250549316406	1449.059204101562	932.5361938476562	-409.0816040039062	1522.755004882812	68.93352508544922	-273.0107421875	1459.943969726562	925.15380859375	-150.2894897460938	1329.604858398438	852.6751098632812	-432.1942749023438	1300.5556640625	890.1976928710938	-120.6411895751953	1300.845458984375	1017.483642578125	-276.4075317382812	1525.689819335938	643.6918334960938	-427.515869140625	1504.989990234375	253.6635894775391	-377.2178039550781	1448.555419921875	615.590087890625	-422.9984436035156	1559.761108398438	552.1506958007812	-392.47021484375	755.2470703125	423.9709777832031	-143.1181488037109	1496.6689453125	350.4186096191406	-397.2942199707031	1479.641235351562	525.54541015625	-392.8629150390625	1350.667602539062	610.3250122070312	-95.576416015625	1751.583740234375	128.2303314208984	-314.5599975585938	1277.480224609375	635.9052124023438	-103.1884613037109	1318.402221679688	514.4996337890625	-99.3469467163086	1243.700927734375	543.213134765625	-114.9513092041016	1531.583129882812	494.2945556640625	-389.6979064941406	1253.63916015625	507.7717590332031	-99.90754699707033	1574.758911132812	358.4704284667969	-390.0741882324219	1584.4052734375	260.9869079589844	-374.2768249511719	1148.179565429688	461.00927734375	-101.648323059082	1706.222290039062	83.28851318359375	-370.6678771972656	1150.9521484375	541.0910034179688	-106.1383895874023	1544.582763671875	51.94533538818359	-246.4961090087891	1047.056640625	463.1281127929688	-118.3889999389648	1053.207275390625	541.948486328125	-125.9054107666016	1572.38427734375	84.68199920654297	-338.077392578125	870.767333984375	509.5056762695312	-168.4038848876953	756.4412231445312	350.722900390625	-190.2779998779297	898.0514526367188	548.2589721679688	-235.1385650634766	874.834228515625	538.22265625	-271.0409851074219	873.9865112304688	566.0223388671875	-216.5976867675781	1531.069702148438	40.54016494750977	-297.9818420410156
250	1.245	1406.87890625	1435.943725585938	-463.9406127929688	1457.849243164062	1427.861450195312	-161.4892272949219	1408.016723632812	972.8873291015624	-431.4253540039062	1423.063598632812	969.4351806640624	-130.4439849853516	1467.854614257812	927.2713623046876	-409.7745666503906	1528.957153320312	69.33595275878906	-274.8344421386719	1479.266967773438	920.0814819335938	-150.7801818847656	1347.703491210938	846.7648315429688	-431.114013671875	1320.583984375	883.1524047851562	-119.6304702758789	1319.76416015625	1011.501892089844	-276.3416442871094	1546.6748046875	640.5995483398438	-423.0423889160156	1518.772705078125	249.1605377197266	-376.2497253417969	1469.609985351562	612.8756103515625	-419.834716796875	1579.792602539062	547.76123046875	-390.8062133789062	782.9327392578125	428.4172973632812	-143.5871429443359	1512.5361328125	345.8327026367188	-396.156005859375	1499.759033203125	521.6998291015625	-392.1330261230469	1374.5166015625	604.6484375	-94.0932388305664	1761.423583984375	113.2239990234375	-309.6776123046875	1300.5732421875	628.6090698242188	-102.3886108398438	1343.651733398438	507.8783874511719	-97.47575378417967	1268.965942382812	535.423583984375	-112.9280395507812	1550.4619140625	489.1734008789062	-388.9305725097656	1280.173461914062	501.0122680664062	-97.68870544433594	1590.909423828125	352.3189697265625	-388.4612426757812	1598.130249023438	254.1127166748047	-372.0934753417969	1174.554321289062	455.3076782226562	-101.0687026977539	1713.96240234375	70.73521423339844	-366.3302612304688	1178.9501953125	536.9143676757812	-103.8175888061523	1549.371459960938	48.47531509399414	-246.030029296875	1073.650756835938	461.2792663574219	-117.6772766113281	1082.001220703125	539.7587890625	-124.7934036254883	1579.77294921875	81.60907745361328	-337.0681762695312	899.1377563476562	512.2501831054688	-169.0478210449219	783.4073486328125	355.147705078125	-190.2934722900391	927.1835327148438	551.0504150390625	-235.5190734863281	903.9742431640624	541.3826904296875	-271.6139221191406	903.1221923828124	568.9852294921875	-216.9224243164062	1535.69482421875	40.04030990600586	-298.2161865234375
